<?xml version="1.0" standalone="no"?>
<!DOCTYPE svg PUBLIC "-//W3C//DTD SVG 20010904//EN"
 "http://www.w3.org/TR/2001/REC-SVG-20010904/DTD/svg10.dtd">
<svg version="1.0" xmlns="http://www.w3.org/2000/svg"
 width="500.000000pt" height="500.000000pt" viewBox="0 0 500.000000 500.000000"
 preserveAspectRatio="xMidYMid meet">

<g transform="translate(0.000000,500.000000) scale(0.100000,-0.100000)"
fill="#000000" stroke="none">
<path d="M1449 3885 c-222 -37 -386 -125 -488 -262 -80 -108 -111 -206 -111
-358 0 -120 18 -202 64 -293 43 -85 97 -146 200 -226 104 -81 177 -122 361
-208 187 -86 270 -135 332 -196 60 -58 89 -116 103 -208 21 -135 -17 -260
-104 -342 -92 -88 -176 -116 -343 -114 -110 0 -165 13 -264 63 -99 49 -142
106 -259 339 -40 80 -76 140 -84 140 -14 0 -16 -22 -30 -348 l-4 -103 58 -29
c252 -127 664 -171 945 -100 107 27 247 97 317 160 75 67 148 177 178 270 20
62 24 95 25 195 0 185 -42 298 -157 420 -100 107 -233 190 -491 304 -184 81
-265 131 -337 207 -61 65 -85 116 -98 209 -19 140 13 241 103 323 83 76 150
97 305 96 229 -1 286 -42 436 -319 51 -93 99 -171 107 -173 21 -4 25 24 33
228 l6 175 -78 42 c-199 105 -489 148 -725 108z"/>
<path d="M2512 3824 c2 -8 32 -28 67 -42 117 -49 106 60 106 -1026 0 -1081 11
-974 -103 -1029 -132 -64 -156 -62 755 -65 l821 -2 6 47 c3 27 8 141 12 256 6
197 5 207 -12 207 -15 0 -36 -40 -97 -180 -44 -99 -88 -191 -100 -206 -40 -52
-58 -54 -432 -54 l-345 0 0 515 0 515 173 0 c94 0 189 -5 211 -9 55 -13 87
-49 142 -162 34 -70 54 -99 66 -99 17 0 18 19 18 295 0 274 -1 295 -17 295
-12 0 -33 -29 -65 -93 -54 -106 -90 -145 -144 -158 -22 -4 -117 -9 -211 -9
l-173 0 0 475 0 475 314 0 c178 0 326 -4 340 -10 39 -15 77 -75 162 -260 57
-126 82 -170 93 -167 12 2 16 14 14 47 -1 25 -4 138 -8 253 l-7 207 -795 0
c-717 0 -794 -2 -791 -16z"/>
</g>
</svg>
